<svg width="14px" height="12px" viewBox="0 0 14 12" version="1.1" xmlns="http://www.w3.org/2000/svg"><title>Icon / Social links / Twitter</title><desc>Created with Sketch.</desc><g id="Symbols" stroke="none" stroke-width="1" fill-rule="evenodd"><g id="Global-/-footer-/-not-sigend-in-/-Desktop" transform="translate(-830.000000, -126.000000)"><g id="Group" transform="translate(596.000000, 124.000000)"><g id="Icon-/-Social-links-/-Twitter" transform="translate(234.000000, 2.000000)"><path d="M13.6666667,1.83890697 C13.1471861,2.09864723 12.6277056,2.18522732 12.1082251,2.2718074 C12.6277056,1.92548706 13.0606061,1.40600654 13.3203463,0.799945931 C12.8008658,1.14626628 12.1948052,1.31942645 11.5887446,1.49258662 C10.5497835,0.367045498 8.81818182,0.367045498 7.69264069,1.40600654 L7.69264069,1.40600654 C7,2.09864723 6.65367965,3.05102818 6.91341991,4.00340913 C4.74891775,3.91682905 2.67099567,2.87786801 1.28571429,1.14626628 C0.593073593,2.35838749 0.939393939,4.00340913 2.15151515,4.78262991 C1.71861472,4.78262991 1.28571429,4.60946974 0.939393939,4.43630957 L0.939393939,4.43630957 C0.939393939,5.73501087 1.80519481,6.86055199 3.1038961,7.12029225 C2.84415584,7.20687234 2.67099567,7.20687234 2.41125541,7.20687234 C2.23809524,7.20687234 2.06493506,7.20687234 1.89177489,7.12029225 C2.23809524,8.24583338 3.27705628,9.02505416 4.4025974,9.02505416 C3.45021645,9.80427494 2.23809524,10.1505953 1.02597403,10.1505953 L0.333333333,10.1505953 C1.54545455,10.9298161 3.01731602,11.3627165 4.48917749,11.3627165 C8.73160173,11.3627165 12.1948052,7.98609312 12.2813853,3.74366887 L12.2813853,3.31076844 C12.8008658,2.87786801 13.2337662,2.44496758 13.6666667,1.83890697 Z" id="Twitter" fill="#ffffff" ></path></g></g></g></g></svg>