<svg class="ELPkmCe3BFPh0ci0AvGev" width="12px" height="14px" viewBox="0 0 12 14" version="1.1" xmlns="http://www.w3.org/2000/svg"><title>Discord</title><desc>Created with Sketch.</desc><g id="Symbols" stroke="none" stroke-width="1" fill-rule="#52B788"><g id="Global-/-footer-/-not-sigend-in-/-Desktop" transform="translate(-737.000000, -124.000000)"><g id="Group" transform="translate(596.000000, 124.000000)"><path d="M151.165775,0.8 L142.487395,0.8 C141.754011,0.8 141.142857,1.41115355 141.142857,2.14453782 C141.142857,2.14453782 141.142857,2.14453782 141.142857,2.14453782 L141.142857,10.945149 C141.142857,11.6785332 141.754011,12.2896868 142.487395,12.2896868 C142.487395,12.2896868 142.487395,12.2896868 142.487395,12.2896868 L149.882353,12.2896868 L149.515661,11.0673797 L150.371276,11.8618793 L151.165775,12.5952636 L152.571429,13.8175707 L152.571429,2.14453782 C152.510313,1.41115355 151.960275,0.8 151.165775,0.8 C151.165775,0.8 151.165775,0.8 151.165775,0.8 Z M148.660046,9.29503438 C148.660046,9.29503438 148.415584,8.9894576 148.232238,8.74499618 C148.721161,8.62276547 149.148969,8.37830405 149.39343,7.95049656 C149.148969,8.13384263 148.904507,8.25607334 148.660046,8.31718869 C148.354469,8.4394194 148.048892,8.56165011 147.743316,8.62276547 C147.193277,8.74499618 146.582124,8.74499618 146.032086,8.62276547 C145.726509,8.56165011 145.359817,8.4394194 145.05424,8.31718869 C144.870894,8.25607334 144.748663,8.19495798 144.565317,8.07272727 C144.565317,8.07272727 144.504202,8.07272727 144.504202,8.01161192 C144.504202,8.01161192 144.504202,8.01161192 144.504202,8.01161192 C144.381971,7.95049656 144.320856,7.88938121 144.320856,7.88938121 C144.626432,8.25607334 144.993125,8.56165011 145.482047,8.68388083 C145.298701,8.92834225 145.05424,9.23391902 145.05424,9.23391902 C144.25974,9.23391902 143.526356,8.86722689 143.037433,8.25607334 C143.037433,6.91153552 143.404125,5.62811306 143.954163,4.46692131 C144.504202,4.03911383 145.115355,3.79465241 145.787624,3.79465241 L145.848739,3.85576776 C145.237586,4.03911383 144.626432,4.28357525 144.13751,4.71138273 C144.13751,4.71138273 144.25974,4.65026738 144.504202,4.52803667 C144.993125,4.3446906 145.482047,4.16134454 145.97097,4.10022918 C146.032086,4.10022918 146.032086,4.10022918 146.093201,4.10022918 C146.521008,4.03911383 146.948816,4.03911383 147.437739,4.10022918 C148.110008,4.16134454 148.782277,4.40580596 149.39343,4.71138273 C148.904507,4.3446906 148.354469,4.03911383 147.743316,3.85576776 L147.804431,3.73353705 C148.4767,3.79465241 149.087853,3.97799847 149.637892,4.40580596 C150.249045,5.56699771 150.554622,6.91153552 150.554622,8.19495798 C150.18793,8.92834225 149.454545,9.29503438 148.660046,9.29503438 Z M145.665393,6.23926662 C145.237586,6.17815126 144.932009,6.48372804 144.870894,6.91153552 C144.809778,7.33934301 145.115355,7.64491979 145.543163,7.70603514 C145.97097,7.7671505 146.276547,7.46157372 146.337662,7.03376623 C146.337662,7.03376623 146.337662,6.97265088 146.337662,6.97265088 C146.337662,6.60595875 146.032086,6.23926662 145.665393,6.23926662 C145.665393,6.23926662 145.665393,6.23926662 145.665393,6.23926662 Z M148.048892,6.23926662 C147.621085,6.17815126 147.315508,6.48372804 147.254393,6.91153552 C147.193277,7.33934301 147.498854,7.64491979 147.926662,7.70603514 C148.354469,7.7671505 148.660046,7.46157372 148.721161,7.03376623 C148.721161,7.03376623 148.721161,6.97265088 148.721161,6.97265088 C148.721161,6.60595875 148.415584,6.23926662 148.048892,6.23926662 C148.048892,6.23926662 148.048892,6.23926662 148.048892,6.23926662 Z" id="Discord" fill="#ffffff"></path></g></g></g></svg>